<mxfile host="app.diagrams.net" modified="2023-04-11T09:41:51.722Z" agent="Mozilla/5.0 (Windows NT 10.0; Win64; x64) AppleWebKit/537.36 (KHTML, like Gecko) Chrome/111.0.0.0 Safari/537.36" etag="7wtIXpkXmOgcHcSgePwc" version="21.1.5" type="device">
  <diagram name="Page-1" id="cbNsrAzDHLywdQflQo4S">
    <mxGraphModel dx="1313" dy="734" grid="1" gridSize="10" guides="1" tooltips="1" connect="1" arrows="1" fold="1" page="1" pageScale="1" pageWidth="850" pageHeight="1100" math="0" shadow="0">
      <root>
        <mxCell id="0" />
        <mxCell id="1" parent="0" />
        <mxCell id="497HRkpdT72j0Y7enlTw-1" value="DefensiveTool" style="swimlane;fontStyle=1;align=center;verticalAlign=top;childLayout=stackLayout;horizontal=1;startSize=26;horizontalStack=0;resizeParent=1;resizeParentMax=0;resizeLast=0;collapsible=1;marginBottom=0;whiteSpace=wrap;html=1;" vertex="1" parent="1">
          <mxGeometry x="30" y="40" width="740" height="270" as="geometry" />
        </mxCell>
        <mxCell id="497HRkpdT72j0Y7enlTw-2" value="- name: String&lt;br&gt;- action: String&lt;br&gt;- price: int&lt;br&gt;- hp: int&lt;br&gt;- fireRange: int&lt;br&gt;- defenseRange:int&lt;br&gt;- population: int&lt;br&gt;- maxPopulation: int" style="text;strokeColor=none;fillColor=none;align=left;verticalAlign=top;spacingLeft=4;spacingRight=4;overflow=hidden;rotatable=0;points=[[0,0.5],[1,0.5]];portConstraint=eastwest;whiteSpace=wrap;html=1;" vertex="1" parent="497HRkpdT72j0Y7enlTw-1">
          <mxGeometry y="26" width="740" height="124" as="geometry" />
        </mxCell>
        <mxCell id="497HRkpdT72j0Y7enlTw-3" value="" style="line;strokeWidth=1;fillColor=none;align=left;verticalAlign=middle;spacingTop=-1;spacingLeft=3;spacingRight=3;rotatable=0;labelPosition=right;points=[];portConstraint=eastwest;strokeColor=inherit;" vertex="1" parent="497HRkpdT72j0Y7enlTw-1">
          <mxGeometry y="150" width="740" height="8" as="geometry" />
        </mxCell>
        <mxCell id="497HRkpdT72j0Y7enlTw-4" value="+ DefensiveTool(name: String,action: String,price: int,hp: int,fireRange: int,defensiveRange: int,population: int,maxPopulation: int)&lt;br&gt;+ action(name: String,action: String): void&lt;br&gt;+ addpopulation(): void&lt;br&gt;+ getName(): String&lt;br&gt;+ getaction(): String&lt;br&gt;+ getFireRange(): int&lt;br&gt;+ getDefenseRange(): int" style="text;strokeColor=none;fillColor=none;align=left;verticalAlign=top;spacingLeft=4;spacingRight=4;overflow=hidden;rotatable=0;points=[[0,0.5],[1,0.5]];portConstraint=eastwest;whiteSpace=wrap;html=1;" vertex="1" parent="497HRkpdT72j0Y7enlTw-1">
          <mxGeometry y="158" width="740" height="112" as="geometry" />
        </mxCell>
      </root>
    </mxGraphModel>
  </diagram>
</mxfile>
